<svg width="50" height="50" viewBox="0 0 50 50" fill="none" xmlns="http://www.w3.org/2000/svg">
<path d="M23.4967 17.3373L11.7259 29.129C11.5306 29.3227 11.3756 29.5531 11.2698 29.807C11.1641 30.0608 11.1096 30.3331 11.1096 30.6082C11.1096 30.8832 11.1641 31.1555 11.2698 31.4094C11.3756 31.6632 11.5306 31.8936 11.7259 32.0873C12.1162 32.4753 12.6442 32.6931 13.1946 32.6931C13.745 32.6931 14.273 32.4753 14.6634 32.0873L25.08 21.7748L35.3925 32.0873C35.7829 32.4753 36.3109 32.6931 36.8613 32.6931C37.4117 32.6931 37.9397 32.4753 38.33 32.0873C38.5269 31.8944 38.6835 31.6643 38.7908 31.4104C38.8981 31.1565 38.9539 30.8838 38.955 30.6082C38.9539 30.3325 38.8981 30.0598 38.7908 29.8059C38.6835 29.552 38.5269 29.3219 38.33 29.129L26.5592 17.3373C26.3641 17.1259 26.1273 16.9571 25.8638 16.8417C25.6003 16.7262 25.3157 16.6666 25.0279 16.6666C24.7402 16.6666 24.4556 16.7262 24.1921 16.8417C23.9286 16.9571 23.6918 17.1259 23.4967 17.3373Z" fill="black"/>
</svg>
