<svg width="30" height="30" viewBox="0 0 30 30" fill="none" xmlns="http://www.w3.org/2000/svg">
<path d="M21.25 13.75H11.7625L15.8875 9.63749C16.1229 9.40211 16.2551 9.08286 16.2551 8.74999C16.2551 8.41711 16.1229 8.09787 15.8875 7.86249C15.6521 7.62711 15.3329 7.49487 15 7.49487C14.6671 7.49487 14.3479 7.62711 14.1125 7.86249L7.86249 14.1125C7.74869 14.2314 7.65949 14.3715 7.59999 14.525C7.47497 14.8293 7.47497 15.1707 7.59999 15.475C7.65949 15.6284 7.74869 15.7686 7.86249 15.8875L14.1125 22.1375C14.2287 22.2546 14.3669 22.3476 14.5193 22.4111C14.6716 22.4746 14.835 22.5072 15 22.5072C15.165 22.5072 15.3284 22.4746 15.4807 22.4111C15.633 22.3476 15.7713 22.2546 15.8875 22.1375C16.0047 22.0213 16.0976 21.883 16.1611 21.7307C16.2246 21.5784 16.2572 21.415 16.2572 21.25C16.2572 21.085 16.2246 20.9216 16.1611 20.7693C16.0976 20.6169 16.0047 20.4787 15.8875 20.3625L11.7625 16.25H21.25C21.5815 16.25 21.8995 16.1183 22.1339 15.8839C22.3683 15.6495 22.5 15.3315 22.5 15C22.5 14.6685 22.3683 14.3505 22.1339 14.1161C21.8995 13.8817 21.5815 13.75 21.25 13.75Z" fill="black"/>
</svg>
