<svg width="50" height="50" viewBox="0 0 50 50" fill="none" xmlns="http://www.w3.org/2000/svg">
<path d="M23.4968 32.6626L11.7259 20.871C11.5307 20.6773 11.3757 20.4469 11.2699 20.193C11.1641 19.9391 11.1097 19.6668 11.1097 19.3918C11.1097 19.1168 11.1641 18.8445 11.2699 18.5906C11.3757 18.3367 11.5307 18.1063 11.7259 17.9126C12.1163 17.5246 12.6443 17.3068 13.1947 17.3068C13.7451 17.3068 14.2731 17.5246 14.6634 17.9126L25.0801 28.2251L35.3926 17.9126C35.7829 17.5246 36.311 17.3068 36.8613 17.3068C37.4117 17.3068 37.9398 17.5246 38.3301 17.9126C38.5269 18.1056 38.6835 18.3357 38.7908 18.5896C38.8981 18.8435 38.9539 19.1161 38.9551 19.3918C38.9539 19.6674 38.8981 19.9401 38.7908 20.194C38.6835 20.4479 38.5269 20.678 38.3301 20.871L26.5593 32.6626C26.3642 32.8741 26.1274 33.0429 25.8639 33.1583C25.6003 33.2737 25.3157 33.3333 25.028 33.3333C24.7403 33.3333 24.4557 33.2737 24.1922 33.1583C23.9286 33.0429 23.6918 32.8741 23.4968 32.6626Z" fill="black"/>
</svg>
